<svg width="64" height="60" viewBox="0 0 64 60" fill="none" xmlns="http://www.w3.org/2000/svg">
<g filter="url(#filter0_d_1_115)">
<path d="M26.0579 28.2096H21.0778C20.8715 28.2096 20.7037 28.0418 20.7037 27.8355V26.0596C20.7037 25.8653 20.5462 25.7078 20.3519 25.7078C20.1575 25.7078 20 25.8653 20 26.0596V27.8355C20 28.4298 20.4835 28.9133 21.0778 28.9133H26.0579C26.2522 28.9133 26.4098 28.7558 26.4098 28.5615C26.4098 28.3671 26.2522 28.2096 26.0579 28.2096Z" fill="#FFA24A"/>
</g>
<g filter="url(#filter1_d_1_115)">
<path d="M42.9222 12.009H21.0778C20.4835 12.009 20 12.4925 20 13.0868V24.5604C20 24.7548 20.1575 24.9123 20.3519 24.9123C20.5462 24.9123 20.7037 24.7548 20.7037 24.5604V13.0868C20.7037 12.8806 20.8715 12.7128 21.0778 12.7128H42.9222C43.1285 12.7128 43.2963 12.8806 43.2963 13.0868V27.8359C43.2963 28.0421 43.1285 28.2099 42.9222 28.2099H38.0359C37.8416 28.2099 37.6841 28.3675 37.6841 28.5618C37.6841 28.7561 37.8416 28.9136 38.0359 28.9136H42.9222C43.5165 28.9136 44 28.4301 44 27.8359V13.0868C44 12.4925 43.5165 12.009 42.9222 12.009Z" fill="#FFA24A"/>
</g>
<g filter="url(#filter2_d_1_115)">
<path d="M39.189 13.4163H21.7593C21.565 13.4163 21.4075 13.5738 21.4075 13.7681V27.1541C21.4075 27.3484 21.565 27.5059 21.7593 27.5059H25.7991C25.9934 27.5059 26.151 27.3484 26.151 27.1541C26.151 26.9597 25.9934 26.8022 25.7991 26.8022H22.1112V14.12H39.189C39.3833 14.12 39.5409 13.9624 39.5409 13.7681C39.5409 13.5738 39.3833 13.4163 39.189 13.4163Z" fill="#FFA24A"/>
</g>
<g filter="url(#filter3_d_1_115)">
<path d="M38.2947 26.8022C38.1004 26.8022 37.9429 26.9597 37.9429 27.1541C37.9429 27.3484 38.1004 27.5059 38.2947 27.5059H42.2407C42.435 27.5059 42.5925 27.3484 42.5925 27.1541V13.7681C42.5925 13.5738 42.435 13.4163 42.2407 13.4163H40.6885C40.4942 13.4163 40.3367 13.5738 40.3367 13.7681C40.3367 13.9624 40.4942 14.12 40.6885 14.12H41.8888V26.8022H38.2947Z" fill="#FFA24A"/>
</g>
<g filter="url(#filter4_d_1_115)">
<path d="M38.5153 25.6618C38.9899 25.6618 39.376 25.2757 39.376 24.8011V24.0086C39.376 23.534 38.9899 23.1479 38.5153 23.1479H37.3915C37.1972 23.1479 37.0396 23.3055 37.0396 23.4998C37.0396 23.6941 37.1972 23.8517 37.3915 23.8517H38.5153C38.6019 23.8517 38.6723 23.922 38.6723 24.0086V24.8011C38.6723 24.8877 38.6019 24.958 38.5153 24.958H25.4844C25.3979 24.958 25.3275 24.8877 25.3275 24.8011V24.0086C25.3275 23.922 25.3979 23.8517 25.4844 23.8517H35.892C36.0863 23.8517 36.2438 23.6941 36.2438 23.4998C36.2438 23.3055 36.0863 23.1479 35.892 23.1479H25.4844C25.0098 23.1479 24.6238 23.534 24.6238 24.0086V24.8011C24.6238 25.2757 25.0098 25.6618 25.4844 25.6618H25.9378L26.9578 26.9008L27.8056 35.6731C27.8242 35.8665 27.9961 36.008 28.1897 35.9895C28.3831 35.9708 28.5247 35.7988 28.506 35.6054L28.3864 34.3676C28.4893 34.2753 28.5914 34.1824 28.6928 34.0888C29.1133 34.7027 29.5482 35.3013 30.0082 35.8198C30.0909 35.9132 30.2099 35.97 30.3346 35.9757C30.3416 35.976 30.3487 35.9762 30.3558 35.9762C30.4736 35.9762 30.589 35.9309 30.6751 35.8501L30.7402 35.7892C31.1916 35.3642 31.6275 34.925 32.0489 34.4708C32.4889 34.9458 32.9449 35.4052 33.418 35.8497C33.5041 35.9306 33.6196 35.976 33.7376 35.976C33.744 35.976 33.7504 35.9759 33.7568 35.9756C33.8813 35.9704 34.0006 35.9143 34.084 35.8216L34.2346 35.6542C34.6444 35.1937 35.0333 34.6537 35.4098 34.097C35.5083 34.1878 35.6074 34.2779 35.7073 34.3675L35.5876 35.6053C35.569 35.7988 35.7106 35.9708 35.904 35.9894C35.9156 35.9905 35.927 35.9911 35.9383 35.9911C36.1174 35.9911 36.2705 35.855 36.2881 35.673L37.1359 26.9007L38.1559 25.6617H38.5153V25.6618ZM34.1785 31.8755C34.4909 31.4448 34.7935 31.0021 35.0869 30.5472C35.3793 30.8691 35.6791 31.1844 35.9849 31.4938L35.9321 32.04C35.7417 32.3177 35.5501 32.6089 35.3482 32.9165C35.3276 32.9478 35.307 32.9793 35.2863 33.0107C34.9066 32.6413 34.5372 32.2629 34.1785 31.8755ZM28.8121 33.0068C28.7787 32.9568 28.7454 32.9068 28.7121 32.857C28.5217 32.5714 28.341 32.3009 28.1614 32.0397L28.1087 31.4938C28.415 31.1839 28.7152 30.8681 29.0081 30.5457C29.3016 30.9999 29.6046 31.4422 29.9175 31.8732C29.5595 32.2599 29.1911 32.638 28.8121 33.0068ZM29.9956 25.6618H31.4586C31.5158 25.757 31.573 25.8524 31.6312 25.947C31.3353 26.413 31.0268 26.8707 30.706 27.3196C30.41 26.8431 30.1268 26.3575 29.8565 25.8632C29.9033 25.7963 29.9493 25.7289 29.9956 25.6618ZM32.0468 26.6036C32.3458 27.0636 32.6565 27.5158 32.9794 27.9591C32.6805 28.4144 32.3695 28.861 32.0469 29.2987C31.7241 28.8609 31.4134 28.4141 31.1144 27.9587C31.4372 27.5156 31.7479 27.0635 32.0468 26.6036ZM30.2583 27.9309C29.8883 28.4224 29.5029 28.9023 29.1036 29.3704C28.8206 28.9013 28.5471 28.4194 28.2826 27.9246C28.6691 27.4599 29.0427 26.9824 29.4019 26.4952C29.6751 26.9824 29.9605 27.461 30.2583 27.9309ZM27.8248 28.557C28.0809 29.0247 28.3449 29.481 28.6177 29.9259C28.4216 30.1447 28.2222 30.3606 28.0197 30.5736L27.8248 28.557ZM29.4928 29.9979C29.8983 29.5297 30.2896 29.0494 30.6662 28.5577C30.9673 29.0082 31.2804 29.45 31.6045 29.8833C31.2185 30.3808 30.817 30.8664 30.4 31.3392C30.0876 30.9042 29.7854 30.4572 29.4928 29.9979ZM32.0468 30.4605C32.4387 30.9594 32.8459 31.4466 33.2686 31.921C32.8773 32.438 32.4711 32.937 32.0492 33.419C31.6261 32.9354 31.219 32.4355 30.8273 31.9183C31.2491 31.4447 31.6556 30.9585 32.0468 30.4605ZM32.4892 29.8832C32.8132 29.4499 33.1262 29.0082 33.4273 28.5577C33.8043 29.0499 34.1962 29.5307 34.6021 29.9994C34.3097 30.4594 34.0078 30.9065 33.696 31.3412C33.2782 30.8676 32.8759 30.3815 32.4892 29.8832ZM35.4764 29.9271C35.7487 29.4822 36.0126 29.0259 36.2687 28.5577L36.0738 30.5741C35.8715 30.3613 35.6724 30.1457 35.4764 29.9271ZM34.991 29.3714C34.5913 28.903 34.2057 28.4227 33.8353 27.9308C34.1331 27.461 34.4185 26.9823 34.6917 26.4952C35.0509 26.9825 35.4246 27.4601 35.8111 27.9248C35.5466 28.4204 35.2734 28.9025 34.991 29.3714ZM33.3875 27.3196C33.0668 26.8707 32.7583 26.413 32.4624 25.947C32.5206 25.8523 32.5778 25.7571 32.635 25.6618H34.098C34.1442 25.7289 34.1902 25.7962 34.2369 25.863C33.9666 26.3574 33.6834 26.843 33.3875 27.3196ZM26.8493 25.6618H28.9513C28.9772 25.7115 29.0029 25.7613 29.0291 25.8108C28.677 26.2994 28.3098 26.7786 27.9293 27.2454C27.823 27.0351 27.7182 26.8225 27.6148 26.6076C27.6108 26.5992 27.6062 26.5911 27.6015 26.5832C27.6005 26.5815 27.5997 26.5797 27.5988 26.578C27.5905 26.5644 27.5814 26.5518 27.5717 26.5397C27.5708 26.5386 27.5702 26.5375 27.5694 26.5364L26.8493 25.6618ZM30.3738 35.1669C29.9741 34.6934 29.5878 34.1529 29.2111 33.5999C29.5997 33.2248 29.978 32.8405 30.3452 32.4471C30.7399 32.9632 31.1497 33.4626 31.5753 33.9461C31.1876 34.366 30.7875 34.7729 30.3738 35.1669ZM33.7236 35.1698C33.31 34.7742 32.9101 34.3664 32.5227 33.9463C32.9473 33.4642 33.3565 32.9658 33.7508 32.4497C34.1199 32.845 34.5 33.231 34.8907 33.6078C34.5122 34.1714 34.1238 34.7176 33.7236 35.1698ZM36.5242 26.5364C36.5215 26.5397 36.5194 26.5435 36.5168 26.5468C36.512 26.5531 36.5075 26.5597 36.5031 26.5664C36.4967 26.576 36.4909 26.5859 36.4855 26.5961C36.4834 26.6001 36.4807 26.6035 36.4787 26.6077C36.3752 26.8228 36.2703 27.0357 36.164 27.2461C35.7834 26.7792 35.4165 26.2997 35.0643 25.811C35.0906 25.7614 35.1163 25.7115 35.1423 25.6618H37.2443L36.5242 26.5364Z" fill="#FFA24A"/>
</g>
<g filter="url(#filter5_d_1_115)">
<path d="M37.1794 22.4443C37.3737 22.4443 37.5312 22.2868 37.5312 22.0925V18.0124C37.5312 17.5635 37.166 17.1982 36.7171 17.1982H27.2829C26.834 17.1982 26.4688 17.5634 26.4688 18.0124V22.0925C26.4688 22.2868 26.6263 22.4443 26.8206 22.4443C27.0149 22.4443 27.1725 22.2868 27.1725 22.0925V18.0124C27.1725 17.9515 27.222 17.902 27.2829 17.902H36.7171C36.778 17.902 36.8275 17.9515 36.8275 18.0124V22.0925C36.8275 22.2868 36.985 22.4443 37.1794 22.4443Z" fill="#FFA24A"/>
</g>
<defs>
<filter id="filter0_d_1_115" x="0" y="9.70776" width="46.4097" height="43.2056" filterUnits="userSpaceOnUse" color-interpolation-filters="sRGB">
<feFlood flood-opacity="0" result="BackgroundImageFix"/>
<feColorMatrix in="SourceAlpha" type="matrix" values="0 0 0 0 0 0 0 0 0 0 0 0 0 0 0 0 0 0 127 0" result="hardAlpha"/>
<feOffset dy="4"/>
<feGaussianBlur stdDeviation="10"/>
<feColorMatrix type="matrix" values="0 0 0 0 1 0 0 0 0 0.635294 0 0 0 0 0.290196 0 0 0 0.6 0"/>
<feBlend mode="normal" in2="BackgroundImageFix" result="effect1_dropShadow_1_115"/>
<feBlend mode="normal" in="SourceGraphic" in2="effect1_dropShadow_1_115" result="shape"/>
</filter>
<filter id="filter1_d_1_115" x="0" y="-3.99097" width="64" height="56.9045" filterUnits="userSpaceOnUse" color-interpolation-filters="sRGB">
<feFlood flood-opacity="0" result="BackgroundImageFix"/>
<feColorMatrix in="SourceAlpha" type="matrix" values="0 0 0 0 0 0 0 0 0 0 0 0 0 0 0 0 0 0 127 0" result="hardAlpha"/>
<feOffset dy="4"/>
<feGaussianBlur stdDeviation="10"/>
<feColorMatrix type="matrix" values="0 0 0 0 1 0 0 0 0 0.635294 0 0 0 0 0.290196 0 0 0 0.6 0"/>
<feBlend mode="normal" in2="BackgroundImageFix" result="effect1_dropShadow_1_115"/>
<feBlend mode="normal" in="SourceGraphic" in2="effect1_dropShadow_1_115" result="shape"/>
</filter>
<filter id="filter2_d_1_115" x="1.40747" y="-2.58374" width="58.1333" height="54.0896" filterUnits="userSpaceOnUse" color-interpolation-filters="sRGB">
<feFlood flood-opacity="0" result="BackgroundImageFix"/>
<feColorMatrix in="SourceAlpha" type="matrix" values="0 0 0 0 0 0 0 0 0 0 0 0 0 0 0 0 0 0 127 0" result="hardAlpha"/>
<feOffset dy="4"/>
<feGaussianBlur stdDeviation="10"/>
<feColorMatrix type="matrix" values="0 0 0 0 1 0 0 0 0 0.635294 0 0 0 0 0.290196 0 0 0 0.6 0"/>
<feBlend mode="normal" in2="BackgroundImageFix" result="effect1_dropShadow_1_115"/>
<feBlend mode="normal" in="SourceGraphic" in2="effect1_dropShadow_1_115" result="shape"/>
</filter>
<filter id="filter3_d_1_115" x="17.9429" y="-2.58374" width="44.6497" height="54.0896" filterUnits="userSpaceOnUse" color-interpolation-filters="sRGB">
<feFlood flood-opacity="0" result="BackgroundImageFix"/>
<feColorMatrix in="SourceAlpha" type="matrix" values="0 0 0 0 0 0 0 0 0 0 0 0 0 0 0 0 0 0 127 0" result="hardAlpha"/>
<feOffset dy="4"/>
<feGaussianBlur stdDeviation="10"/>
<feColorMatrix type="matrix" values="0 0 0 0 1 0 0 0 0 0.635294 0 0 0 0 0.290196 0 0 0 0.6 0"/>
<feBlend mode="normal" in2="BackgroundImageFix" result="effect1_dropShadow_1_115"/>
<feBlend mode="normal" in="SourceGraphic" in2="effect1_dropShadow_1_115" result="shape"/>
</filter>
<filter id="filter4_d_1_115" x="4.62378" y="7.14795" width="54.7522" height="52.8433" filterUnits="userSpaceOnUse" color-interpolation-filters="sRGB">
<feFlood flood-opacity="0" result="BackgroundImageFix"/>
<feColorMatrix in="SourceAlpha" type="matrix" values="0 0 0 0 0 0 0 0 0 0 0 0 0 0 0 0 0 0 127 0" result="hardAlpha"/>
<feOffset dy="4"/>
<feGaussianBlur stdDeviation="10"/>
<feColorMatrix type="matrix" values="0 0 0 0 1 0 0 0 0 0.635294 0 0 0 0 0.290196 0 0 0 0.6 0"/>
<feBlend mode="normal" in2="BackgroundImageFix" result="effect1_dropShadow_1_115"/>
<feBlend mode="normal" in="SourceGraphic" in2="effect1_dropShadow_1_115" result="shape"/>
</filter>
<filter id="filter5_d_1_115" x="6.46875" y="1.19824" width="51.0625" height="45.2461" filterUnits="userSpaceOnUse" color-interpolation-filters="sRGB">
<feFlood flood-opacity="0" result="BackgroundImageFix"/>
<feColorMatrix in="SourceAlpha" type="matrix" values="0 0 0 0 0 0 0 0 0 0 0 0 0 0 0 0 0 0 127 0" result="hardAlpha"/>
<feOffset dy="4"/>
<feGaussianBlur stdDeviation="10"/>
<feColorMatrix type="matrix" values="0 0 0 0 1 0 0 0 0 0.635294 0 0 0 0 0.290196 0 0 0 0.6 0"/>
<feBlend mode="normal" in2="BackgroundImageFix" result="effect1_dropShadow_1_115"/>
<feBlend mode="normal" in="SourceGraphic" in2="effect1_dropShadow_1_115" result="shape"/>
</filter>
</defs>
</svg>
