<svg width="23" height="23" viewBox="0 0 23 23" fill="none" xmlns="http://www.w3.org/2000/svg">
<g clip-path="url(#clip0_1_1719)">
<path d="M11.5 13.0619V12.5555C12.1603 12.1339 12.704 11.5529 13.0808 10.866C13.4576 10.1791 13.6555 9.40844 13.6562 8.62499V5.39062C13.6562 5.36862 13.6539 5.34717 13.6536 5.32521C13.8638 5.25179 14.0461 5.11495 14.1753 4.93357C14.3045 4.75219 14.3743 4.53519 14.375 4.31249V3.23437C14.3747 2.94853 14.261 2.67448 14.0589 2.47236C13.8568 2.27024 13.5827 2.15655 13.2969 2.15624H12.3467C11.9124 1.70189 11.3906 1.34026 10.8127 1.0932C10.2348 0.84613 9.61287 0.71875 8.98438 0.71875C8.35588 0.71875 7.73391 0.84613 7.15602 1.0932C6.57813 1.34026 6.0563 1.70189 5.62206 2.15624H4.67188C4.38603 2.15655 4.11199 2.27024 3.90987 2.47236C3.70775 2.67448 3.59406 2.94853 3.59375 3.23437V4.31249C3.59445 4.53519 3.66421 4.75219 3.79342 4.93357C3.92263 5.11495 4.10493 5.25179 4.31518 5.32521C4.31489 5.34713 4.3125 5.3686 4.3125 5.39062V8.62499C4.31325 9.40844 4.51115 10.1791 4.88797 10.866C5.26479 11.5529 5.80841 12.1339 6.46875 12.5555V13.0619L2.22609 14.9179C1.77804 15.114 1.39684 15.4364 1.12914 15.8457C0.861434 16.2551 0.718823 16.7335 0.71875 17.2226V22.2812H1.4375V17.2226C1.43756 16.8733 1.53943 16.5315 1.73066 16.2391C1.92188 15.9467 2.19417 15.7164 2.51422 15.5763L3.23438 15.2613V22.2812H3.95312V14.9468L5.03125 14.4752V15.0937C5.03203 15.7607 5.29732 16.4001 5.76892 16.8717C6.24052 17.3433 6.87993 17.6086 7.54688 17.6094H11.5V16.8906H7.54688C7.07049 16.8901 6.61377 16.7006 6.27691 16.3637C5.94005 16.0268 5.75056 15.5701 5.75 15.0937V14.1607L6.46875 13.8463V14.7344H7.1875V12.9364C7.75669 13.1744 8.36746 13.2969 8.98438 13.2969C9.60129 13.2969 10.2121 13.1744 10.7812 12.9364V14.7344H11.5V13.8463L12.0747 14.0977L12.3628 13.4394L11.5 13.0619ZM8.98438 1.43749C9.79548 1.43887 10.5865 1.68981 11.2501 2.15624H6.71865C7.38223 1.68981 8.17327 1.43887 8.98438 1.43749ZM4.3125 4.31249V3.23437C4.3126 3.13908 4.35049 3.04773 4.41786 2.98036C4.48524 2.91298 4.57659 2.87509 4.67188 2.87499H13.2969C13.3922 2.87509 13.4835 2.91298 13.5509 2.98036C13.6183 3.04773 13.6562 3.13908 13.6562 3.23437V4.31249C13.6562 4.40778 13.6183 4.49913 13.5509 4.5665C13.4835 4.63388 13.3922 4.67177 13.2969 4.67187H4.67188C4.57659 4.67177 4.48524 4.63388 4.41786 4.5665C4.35049 4.49913 4.3126 4.40778 4.3125 4.31249ZM8.98438 12.5781C7.9363 12.5769 6.9315 12.1601 6.1904 11.419C5.4493 10.6779 5.03243 9.67306 5.03125 8.62499V5.39062H12.9375V8.62499C12.9363 9.67306 12.5194 10.6779 11.7783 11.419C11.0373 12.1601 10.0324 12.5769 8.98438 12.5781Z" fill="#777777"/>
<path d="M9.34375 8.625H8.625V10.0625H9.34375V8.625Z" fill="#777777"/>
<path d="M7.8734 10.4734L7.50244 11.089C7.94997 11.3579 8.46224 11.4999 8.98434 11.4999C9.50644 11.4999 10.0187 11.3579 10.4662 11.089L10.0953 10.4734C9.75848 10.6712 9.37495 10.7756 8.98434 10.7756C8.59373 10.7756 8.2102 10.6712 7.8734 10.4734Z" fill="#777777"/>
<path d="M7.1875 8.26562C7.38598 8.26562 7.54688 8.10473 7.54688 7.90625C7.54688 7.70777 7.38598 7.54688 7.1875 7.54688C6.98902 7.54688 6.82812 7.70777 6.82812 7.90625C6.82812 8.10473 6.98902 8.26562 7.1875 8.26562Z" fill="#777777"/>
<path d="M7.90625 6.10938H6.46875V6.82812H7.90625V6.10938Z" fill="#777777"/>
<path d="M10.7812 8.26562C10.9797 8.26562 11.1406 8.10473 11.1406 7.90625C11.1406 7.70777 10.9797 7.54688 10.7812 7.54688C10.5828 7.54688 10.4219 7.70777 10.4219 7.90625C10.4219 8.10473 10.5828 8.26562 10.7812 8.26562Z" fill="#777777"/>
<path d="M11.5 6.10938H10.0625V6.82812H11.5V6.10938Z" fill="#777777"/>
<path d="M17.2499 12.2188C16.0859 12.2188 14.9579 12.6223 14.0581 13.3608C13.1583 14.0992 12.5424 15.1268 12.3153 16.2684C12.0882 17.4101 12.264 18.5951 12.8127 19.6217C13.3614 20.6483 14.2491 21.4528 15.3245 21.8983C16.3999 22.3437 17.5964 22.4025 18.7103 22.0646C19.8242 21.7268 20.7865 21.0131 21.4332 20.0453C22.0799 19.0774 22.371 17.9153 22.2569 16.7569C22.1428 15.5985 21.6306 14.5155 20.8075 13.6924C20.3415 13.2237 19.787 12.8521 19.1764 12.5992C18.5657 12.3462 17.9109 12.2169 17.2499 12.2188ZM17.9557 12.9993C18.7226 13.124 19.4408 13.4558 20.0329 13.9589L18.2663 15.7255L18.0122 15.4714C17.6878 15.1451 17.501 14.7067 17.4905 14.2466C17.48 13.7866 17.6465 13.3401 17.9557 12.9993ZM17.1065 12.9445C16.8301 13.4238 16.7193 13.9808 16.7912 14.5294C16.863 15.078 17.1136 15.5876 17.504 15.9796L17.7581 16.2336L17.2499 16.7418L14.467 13.9589C15.2062 13.331 16.137 12.9732 17.1065 12.9445ZM13.9593 14.4676L16.7418 17.25L16.2335 17.7583L15.9793 17.5041C15.5876 17.114 15.0785 16.8636 14.5304 16.7915C13.9823 16.7194 13.4257 16.8297 12.9465 17.1054C12.9767 16.137 13.3337 15.2073 13.9593 14.4676ZM13.0011 17.9542C13.342 17.6457 13.7882 17.4798 14.2477 17.4906C14.7073 17.5014 15.1452 17.6881 15.4711 18.0123L15.7253 18.2664L13.9593 20.0325C13.4573 19.4395 13.1261 18.721 13.0011 17.9542ZM16.5442 21.5007C15.7773 21.376 15.0591 21.0442 14.467 20.5411L16.2336 18.7746L16.4877 19.0287C16.8121 19.355 16.9989 19.7934 17.0094 20.2534C17.0199 20.7134 16.8534 21.1599 16.5442 21.5007ZM17.3934 21.5555C17.6698 21.0762 17.7806 20.5192 17.7087 19.9707C17.6369 19.4221 17.3863 18.9124 16.9959 18.5205L16.7418 18.2664L17.2499 17.7582L20.0329 20.5411C19.2937 21.1691 18.3629 21.5268 17.3934 21.5555ZM20.5406 20.0325L17.7581 17.25L18.2664 16.7418L18.5206 16.9959C18.9117 17.387 19.4209 17.638 19.9693 17.7101C20.5177 17.7822 21.0745 17.6713 21.5534 17.3947C21.5231 18.3631 21.1662 19.2927 20.5406 20.0325ZM19.0287 16.4878L18.7745 16.2336L20.5406 14.4676C21.0426 15.0606 21.3738 15.779 21.4988 16.5458C21.1579 16.8543 20.7117 17.0203 20.2522 17.0095C19.7926 16.9987 19.3547 16.8119 19.0287 16.4878Z" fill="#777777"/>
</g>
<defs>
<clipPath id="clip0_1_1719">
<rect width="23" height="23" fill="white"/>
</clipPath>
</defs>
</svg>
