<svg width="40" height="40" viewBox="0 0 40 40" fill="none" xmlns="http://www.w3.org/2000/svg">
<g clip-path="url(#clip0_1_1781)">
<path d="M39.4608 24.6142C42.0075 13.8661 35.3589 3.08857 24.6108 0.541879C13.8627 -2.00481 3.08512 4.64375 0.538432 15.3919C-2.00826 26.14 4.64031 36.9175 15.3884 39.4642C26.1365 42.0109 36.9141 35.3623 39.4608 24.6142Z" fill="#FFCE00"/>
<path d="M29.1265 26.2062H10.8732C10.6134 26.2062 10.3642 26.1029 10.1805 25.9192C9.99677 25.7355 9.89355 25.4863 9.89355 25.2265C9.89355 24.9667 9.99677 24.7175 10.1805 24.5338C10.3642 24.35 10.6134 24.2468 10.8732 24.2468H29.1265C29.3863 24.2468 29.6355 24.35 29.8192 24.5338C30.0029 24.7175 30.1061 24.9667 30.1061 25.2265C30.1061 25.4863 30.0029 25.7355 29.8192 25.9192C29.6355 26.1029 29.3863 26.2062 29.1265 26.2062Z" fill="#562912"/>
<path d="M30.4619 16.5989C30.4619 17.0168 30.338 17.4253 30.1057 17.7726C29.8735 18.12 29.5434 18.3907 29.1572 18.5504C28.771 18.7101 28.3462 18.7517 27.9364 18.6698C27.5266 18.5879 27.1503 18.3864 26.8552 18.0905C26.56 17.7947 26.3593 17.418 26.2783 17.0081C26.1973 16.5981 26.2398 16.1733 26.4004 15.7875C26.5609 15.4017 26.8323 15.0722 27.1802 14.8407C27.5281 14.6092 27.9369 14.4862 28.3547 14.4871C28.6318 14.4871 28.9062 14.5417 29.1622 14.6479C29.4182 14.7541 29.6507 14.9097 29.8464 15.1059C30.0421 15.302 30.1972 15.5349 30.3029 15.7911C30.4085 16.0473 30.4626 16.3218 30.4619 16.5989Z" fill="#562912"/>
<path d="M13.757 16.5989C13.757 17.0166 13.6331 17.4249 13.4011 17.7722C13.169 18.1195 12.8392 18.3901 12.4533 18.55C12.0674 18.7098 11.6428 18.7516 11.2332 18.6701C10.8235 18.5887 10.4472 18.3875 10.1519 18.0922C9.85652 17.7968 9.65539 17.4205 9.5739 17.0109C9.49242 16.6012 9.53424 16.1766 9.69408 15.7907C9.85392 15.4048 10.1246 15.075 10.4719 14.843C10.8192 14.6109 11.2275 14.4871 11.6452 14.4871C11.9227 14.4865 12.1975 14.5407 12.454 14.6466C12.7105 14.7525 12.9436 14.908 13.1398 15.1042C13.336 15.3005 13.4916 15.5335 13.5975 15.79C13.7034 16.0465 13.7576 16.3214 13.757 16.5989Z" fill="#562912"/>
</g>
<defs>
<clipPath id="clip0_1_1781">
<rect width="40" height="40" fill="white"/>
</clipPath>
</defs>
</svg>
