<svg width="40" height="40" viewBox="0 0 40 40" fill="none" xmlns="http://www.w3.org/2000/svg">
<g clip-path="url(#clip0_1_1794)">
<path d="M20 40C31.0457 40 40 31.0457 40 20C40 8.9543 31.0457 0 20 0C8.9543 0 0 8.9543 0 20C0 31.0457 8.9543 40 20 40Z" fill="#FFCE00"/>
<path d="M30.6193 13.0824C30.6239 13.6588 30.5041 14.2294 30.2681 14.7552C30.2357 14.8287 30.1877 14.8942 30.1273 14.9471C30.0669 15 29.9957 15.0391 29.9187 15.0615C29.8416 15.084 29.7605 15.0893 29.6812 15.0771C29.6018 15.0649 29.5261 15.0355 29.4594 14.9909C29.1779 14.772 28.8316 14.6532 28.4751 14.6532C28.1186 14.6532 27.7722 14.772 27.4908 14.9909C27.4233 15.0387 27.3459 15.0705 27.2643 15.084C27.1827 15.0974 27.0992 15.0922 27.0199 15.0686C26.9407 15.045 26.8678 15.0037 26.8069 14.9478C26.746 14.8919 26.6986 14.8229 26.6682 14.746C26.4301 14.2208 26.3102 13.6497 26.3171 13.0731C26.3171 11.3957 27.2736 10.0325 28.4566 10.0325C29.6396 10.0325 30.6193 11.4049 30.6193 13.0824Z" fill="#562912"/>
<path d="M13.6645 13.0822C13.6691 13.6585 13.5493 14.2291 13.3133 14.755C13.2815 14.8283 13.2339 14.8938 13.1739 14.9467C13.114 14.9996 13.0432 15.0387 12.9664 15.0612C12.8897 15.0837 12.809 15.089 12.73 15.0768C12.651 15.0646 12.5756 15.0352 12.5092 14.9907C12.2245 14.7746 11.8777 14.6563 11.5203 14.6533C11.1658 14.6563 10.8219 14.7747 10.5406 14.9907C10.4739 15.0353 10.3982 15.0647 10.3188 15.0769C10.2395 15.0891 10.1584 15.0838 10.0814 15.0613C10.0043 15.0389 9.93307 14.9998 9.87271 14.9469C9.81234 14.894 9.7643 14.8285 9.73195 14.755C9.49591 14.2291 9.37612 13.6585 9.38074 13.0822C9.38074 11.4047 10.3373 10.0415 11.5203 10.0415C12.7033 10.0415 13.6645 11.4047 13.6645 13.0822Z" fill="#562912"/>
<path d="M9.83365 20.8966C9.69578 20.8973 9.55996 20.9301 9.43698 20.9924C9.314 21.0547 9.20722 21.1449 9.12515 21.2556C9.04307 21.3664 8.98794 21.4948 8.96413 21.6306C8.94032 21.7664 8.9485 21.9059 8.98799 22.038C10.0324 25.8504 14.5333 28.7247 19.9954 28.7247C25.4575 28.7247 30.0093 25.8134 31.0166 21.9641C31.0469 21.8354 31.0474 21.7016 31.0181 21.5727C30.9888 21.4438 30.9305 21.3233 30.8476 21.2204C30.7647 21.1175 30.6595 21.0348 30.5398 20.9787C30.4201 20.9226 30.2893 20.8945 30.1571 20.8966H9.83365Z" fill="#562912"/>
<path d="M19.9907 22.3937C22.6833 22.4268 25.3549 21.9176 27.8465 20.8965H12.1349C14.6263 21.9182 17.2981 22.4275 19.9907 22.3937Z" fill="white"/>
<path d="M20.1988 26.6452C18.7119 26.6338 17.2787 27.2005 16.2015 28.2256C18.7971 28.9181 21.5324 28.8893 24.1128 28.1424C23.0428 27.169 21.6453 26.6345 20.1988 26.6452Z" fill="#CC342F"/>
</g>
<defs>
<clipPath id="clip0_1_1794">
<rect width="40" height="40" fill="white"/>
</clipPath>
</defs>
</svg>
