<svg width="24" height="24" viewBox="0 0 24 24" fill="none" xmlns="http://www.w3.org/2000/svg">
<g clip-path="url(#clip0_1_109)">
<circle cx="16.5" cy="5.5" r="5.5" fill="#FFA24A"/>
<path d="M21.6421 5.61967C21.6421 5.81376 21.7996 5.97123 21.9937 5.97123C22.188 5.97123 22.3453 5.81376 22.3453 5.61967C22.3453 2.52099 19.8204 0 16.717 0C14.9603 0 13.389 0.808041 12.3561 2.07128C11.8986 1.59741 11.2247 1.37713 10.5527 1.51153C10.0367 1.61535 9.59216 1.91326 9.30066 2.35052C9.00897 2.78814 8.90552 3.31273 9.00915 3.82835C9.04669 4.01457 9.11059 4.19218 9.19757 4.35716C6.43835 5.14433 4.48718 7.68747 4.48718 10.5976C4.48718 10.7916 4.64465 10.9491 4.83874 10.9491C5.03302 10.9491 5.19031 10.7916 5.19031 10.5976C5.19031 7.84183 7.15265 5.45469 9.85602 4.92094L9.85712 4.92076C10.2277 4.84788 10.6078 4.81108 10.9869 4.81108C11.0403 4.81108 11.0938 4.81199 11.1471 4.81346C11.109 5.07676 11.0889 5.34593 11.0889 5.61967C11.0889 8.71835 13.6137 11.2393 16.717 11.2393C16.7391 11.2393 16.7611 11.2382 16.7833 11.2381V12.938C16.7833 14.31 17.3888 15.6011 18.4446 16.4802L18.8676 16.8323C19.2933 17.1866 19.5375 17.7071 19.5375 18.2601V18.2821C19.5375 19.2939 18.7128 20.117 17.6992 20.117H4.18213C3.16846 20.117 2.34375 19.2939 2.34375 18.2821C2.34375 18.0058 2.40674 17.7286 2.52576 17.4805C2.64514 17.2314 2.82184 17.0084 3.03699 16.8352L3.47095 16.4853C4.56372 15.6057 5.19031 14.297 5.19031 12.8953V12.1246C5.19031 11.9306 5.03302 11.7731 4.83874 11.7731C4.64465 11.7731 4.48718 11.9306 4.48718 12.1246V12.8953C4.48718 14.0831 3.95618 15.192 3.02985 15.9378L2.59589 16.2877C2.2998 16.5259 2.05609 16.8334 1.89185 17.1763C1.72742 17.5187 1.64062 17.9012 1.64062 18.2821C1.64062 19.6816 2.78082 20.8201 4.18231 20.8201H7.86255C7.86145 20.8549 7.86035 20.8895 7.86035 20.9241C7.86035 22.6202 9.24225 24.0001 10.9407 24.0001C12.6392 24.0001 14.0209 22.6202 14.0209 20.9241C14.0209 20.8895 14.02 20.8549 14.0187 20.8201H17.6993C19.1006 20.8201 20.2408 19.6816 20.2408 18.2821V18.2601C20.2408 17.4975 19.9043 16.7803 19.3176 16.2919L18.8947 15.9398C17.9998 15.1948 17.4866 14.1007 17.4866 12.938V11.1866C18.4422 11.0573 19.3412 10.6873 20.1204 10.0958C21.0738 9.37222 21.7835 8.34482 22.1188 7.20297C22.1735 7.01676 22.0668 6.82138 21.8806 6.76664C21.6942 6.71189 21.4988 6.81864 21.4442 7.00486C21.1511 8.00351 20.5298 8.90219 19.6952 9.53573C18.8331 10.1901 17.8033 10.536 16.7172 10.536C14.0013 10.536 11.792 8.33053 11.792 5.61948C11.792 2.90862 14.0013 0.703122 16.717 0.703122C19.4328 0.703122 21.6421 2.90862 21.6421 5.61967ZM13.3178 20.9241C13.3178 22.2324 12.2514 23.2968 10.9407 23.2968C9.62988 23.2968 8.56348 22.2324 8.56348 20.9241C8.56348 20.8895 8.56439 20.8547 8.56586 20.8201H13.3154C13.3171 20.8547 13.3178 20.8895 13.3178 20.9241ZM10.9869 4.10795C10.6311 4.10795 10.2748 4.13743 9.92413 4.19475C9.81299 4.04625 9.73572 3.87431 9.69855 3.68956C9.6319 3.35851 9.69855 3.02159 9.88568 2.74053C10.0732 2.45928 10.3592 2.26757 10.691 2.20092C11.1669 2.10552 11.6448 2.2868 11.9361 2.65777C11.6569 3.10564 11.4388 3.59526 11.2939 4.1151C11.1923 4.11034 11.0896 4.10795 10.9869 4.10795Z" fill="#858484"/>
<path d="M16.7171 8.06394C16.9114 8.06394 17.0686 7.90665 17.0686 7.71238V3.33215C17.0686 3.1928 16.9866 3.06683 16.8592 3.01043C16.7319 2.95422 16.5834 2.97839 16.4805 3.07214L15.7265 3.7586C15.5829 3.88933 15.5725 4.11162 15.703 4.25518C15.8338 4.39873 16.0561 4.40917 16.1998 4.27843L16.3655 4.12755V7.71238C16.3655 7.90665 16.523 8.06394 16.7171 8.06394Z" fill="white"/>
</g>
<defs>
<clipPath id="clip0_1_109">
<rect width="24" height="24" fill="white"/>
</clipPath>
</defs>
</svg>
