<svg width="40" height="40" viewBox="0 0 40 40" fill="none" xmlns="http://www.w3.org/2000/svg">
<path d="M40 19.9907C40 23.9463 38.827 27.8131 36.6294 31.1021C34.4318 34.3911 31.3082 36.9546 27.6537 38.4683C23.9992 39.9821 19.9778 40.3781 16.0982 39.6064C12.2186 38.8347 8.65491 36.9299 5.85786 34.1329C3.06081 31.3358 1.15601 27.7721 0.384302 23.8925C-0.387402 20.0129 0.00866912 15.9916 1.52242 12.3371C3.03617 8.68253 5.59963 5.55896 8.88861 3.36134C12.1776 1.16371 16.0444 -0.00927734 20 -0.00927734C25.3043 -0.00927734 30.3914 2.09786 34.1421 5.84859C37.8929 9.59932 40 14.6864 40 19.9907Z" fill="#FFCE00"/>
</svg>
