<svg width="24" height="24" viewBox="0 0 24 24" fill="none" xmlns="http://www.w3.org/2000/svg">
<path d="M12.0001 2.99993C10.22 2.99993 8.47996 3.52777 6.99992 4.5167C5.51988 5.50564 4.36632 6.91124 3.68513 8.55578C3.00395 10.2003 2.82572 12.0099 3.17298 13.7557C3.52025 15.5016 4.37742 17.1052 5.63609 18.3639C6.89476 19.6226 8.49841 20.4797 10.2442 20.827C11.9901 21.1743 13.7997 20.996 15.4442 20.3148C17.0887 19.6337 18.4943 18.4801 19.4833 17.0001C20.4722 15.52 21.0001 13.78 21.0001 11.9999C20.9973 9.61382 20.0482 7.32622 18.361 5.63898C16.6738 3.95175 14.3862 3.00266 12.0001 2.99993ZM12.0001 19.4999C10.5167 19.4999 9.06664 19.0601 7.83327 18.236C6.59991 17.4118 5.63861 16.2405 5.07095 14.8701C4.5033 13.4996 4.35477 11.9916 4.64416 10.5368C4.93355 9.08189 5.64786 7.74552 6.69675 6.69663C7.74564 5.64773 9.08202 4.93343 10.5369 4.64404C11.9917 4.35465 13.4997 4.50318 14.8702 5.07083C16.2406 5.63849 17.412 6.59978 18.2361 7.83315C19.0602 9.06652 19.5001 10.5166 19.5001 11.9999C19.4978 13.9884 18.7069 15.8947 17.3009 17.3008C15.8948 18.7068 13.9885 19.4977 12.0001 19.4999ZM5.78068 2.78055L2.78068 5.78055C2.71099 5.85024 2.62827 5.90551 2.53722 5.94322C2.44618 5.98094 2.3486 6.00035 2.25005 6.00035C2.1515 6.00035 2.05392 5.98094 1.96288 5.94322C1.87183 5.90551 1.78911 5.85024 1.71943 5.78055C1.5787 5.63982 1.49963 5.44895 1.49963 5.24993C1.49963 5.05091 1.5787 4.86003 1.71943 4.7193L4.71943 1.7193C4.78911 1.64962 4.87183 1.59435 4.96288 1.55663C5.05392 1.51892 5.1515 1.49951 5.25005 1.49951C5.3486 1.49951 5.44618 1.51892 5.53722 1.55663C5.62827 1.59435 5.71099 1.64962 5.78068 1.7193C5.85036 1.78899 5.90563 1.87171 5.94335 1.96276C5.98106 2.0538 6.00047 2.15138 6.00047 2.24993C6.00047 2.34848 5.98106 2.44606 5.94335 2.5371C5.90563 2.62815 5.85036 2.71087 5.78068 2.78055ZM22.2807 5.78055C22.211 5.85029 22.1283 5.90561 22.0373 5.94335C21.9462 5.98109 21.8486 6.00052 21.7501 6.00052C21.6515 6.00052 21.5539 5.98109 21.4628 5.94335C21.3718 5.90561 21.2891 5.85029 21.2194 5.78055L18.2194 2.78055C18.0787 2.63982 17.9996 2.44895 17.9996 2.24993C17.9996 2.05091 18.0787 1.86003 18.2194 1.7193C18.3602 1.57857 18.551 1.49951 18.7501 1.49951C18.9491 1.49951 19.1399 1.57857 19.2807 1.7193L22.2807 4.7193C22.3504 4.78896 22.4057 4.87168 22.4435 4.96272C22.4812 5.05377 22.5006 5.15137 22.5006 5.24993C22.5006 5.34849 22.4812 5.44609 22.4435 5.53713C22.4057 5.62818 22.3504 5.7109 22.2807 5.78055ZM17.2501 11.2499C17.449 11.2499 17.6397 11.3289 17.7804 11.4696C17.921 11.6103 18.0001 11.801 18.0001 11.9999C18.0001 12.1988 17.921 12.3896 17.7804 12.5303C17.6397 12.6709 17.449 12.7499 17.2501 12.7499H12.0001C11.8011 12.7499 11.6104 12.6709 11.4697 12.5303C11.3291 12.3896 11.2501 12.1988 11.2501 11.9999V6.74993C11.2501 6.55102 11.3291 6.36025 11.4697 6.2196C11.6104 6.07895 11.8011 5.99993 12.0001 5.99993C12.199 5.99993 12.3897 6.07895 12.5304 6.2196C12.671 6.36025 12.7501 6.55102 12.7501 6.74993V11.2499H17.2501Z" fill="url(#paint0_linear_4_3578)"/>
<defs>
<linearGradient id="paint0_linear_4_3578" x1="1.49963" y1="11.2497" x2="22.5006" y2="11.2497" gradientUnits="userSpaceOnUse">
<stop stop-color="#F6B027"/>
<stop offset="1" stop-color="#B37600"/>
</linearGradient>
</defs>
</svg>
