<svg width="6" height="12" viewBox="0 0 6 12" fill="none" xmlns="http://www.w3.org/2000/svg">
<path d="M5.85372 6.35378L0.853723 11.3538C0.807268 11.4002 0.752118 11.4371 0.691421 11.4622C0.630725 11.4874 0.56567 11.5003 0.499973 11.5003C0.434275 11.5003 0.369221 11.4874 0.308525 11.4622C0.247828 11.4371 0.192678 11.4002 0.146223 11.3538C0.0997675 11.3073 0.0629173 11.2522 0.037776 11.1915C0.0126347 11.1308 -0.000305176 11.0657 -0.000305176 11C-0.000305176 10.9343 0.0126347 10.8693 0.037776 10.8086C0.0629173 10.7479 0.0997675 10.6927 0.146223 10.6463L4.7931 6.00003L0.146223 1.35378C0.0524023 1.25996 -0.000305177 1.13272 -0.000305176 1.00003C-0.000305175 0.867352 0.0524023 0.740104 0.146223 0.646284C0.240043 0.552464 0.367291 0.499756 0.499973 0.499756C0.632655 0.499756 0.759903 0.552464 0.853723 0.646284L5.85372 5.64628C5.90021 5.69272 5.93709 5.74786 5.96225 5.80856C5.98742 5.86926 6.00037 5.93433 6.00037 6.00003C6.00037 6.06574 5.98742 6.1308 5.96225 6.1915C5.93709 6.2522 5.90021 6.30735 5.85372 6.35378Z" fill="#F5F6F8"/>
</svg>
