<svg width="20" height="20" viewBox="0 0 20 20" fill="none" xmlns="http://www.w3.org/2000/svg">
<path d="M17.439 9.04311C17.4795 9.36051 17.4999 9.68016 17.5 10.0001C17.5011 11.4015 17.1094 12.7751 16.3691 13.9651C15.6289 15.155 14.5699 16.1135 13.3123 16.7319C12.0547 17.3502 10.649 17.6036 9.25464 17.4632C7.86031 17.3228 6.53327 16.7943 5.4242 15.9376C7.39217 15.4564 9.70702 14.4587 11.8648 13.2189C14.1648 11.8978 16.1062 10.4267 17.439 9.04311ZM19.1492 4.74076C18.5515 3.7103 16.9742 3.47826 14.5789 4.0642C13.4699 3.20673 12.1428 2.67747 10.7481 2.53652C9.35339 2.39557 7.94713 2.6486 6.68905 3.26686C5.43097 3.88512 4.3715 4.84382 3.63101 6.03406C2.89051 7.2243 2.49866 8.59835 2.49998 10.0001C2.50008 10.3217 2.52043 10.6429 2.56092 10.9619C0.39764 13.2033 0.42889 14.5314 0.851546 15.2595C1.24998 15.9501 2.08123 16.2501 3.17498 16.2501C3.93438 16.2344 4.68929 16.1295 5.4242 15.9376C5.02123 15.6261 4.65062 15.2749 4.31795 14.8892C2.96717 15.1142 2.13045 14.9673 1.9328 14.6322C1.81873 14.4361 1.88202 14.0665 2.10623 13.6165C2.32794 13.1951 2.59742 12.8006 2.90936 12.4408C2.90972 12.4384 2.90972 12.4361 2.90936 12.4337V12.44C3.21941 13.3371 3.69657 14.1673 4.31561 14.8869C5.95155 14.6142 8.33827 13.8001 11.2398 12.133C13.4375 10.8744 15.7812 9.11498 17.093 7.5642C16.7841 6.66586 16.3068 5.83463 15.6867 5.11498L15.6765 5.10327C15.6765 5.10717 15.6836 5.1103 15.6867 5.11498C16.7969 4.93139 17.825 4.94545 18.0695 5.36811C18.1414 5.49076 18.1476 5.67436 18.0812 5.91498C17.9492 6.40795 17.5976 6.97201 17.0945 7.56576C17.2599 8.04566 17.3759 8.5412 17.4406 9.04467C18.4172 8.02905 19.0672 7.0642 19.2883 6.23842C19.4398 5.66498 19.3937 5.16186 19.1492 4.74076Z" fill="#CACBCE"/>
</svg>
