<svg width="24" height="24" viewBox="0 0 24 24" fill="none" xmlns="http://www.w3.org/2000/svg">
<g opacity="0.89">
<path d="M4.62327 6.90853C4.54375 6.362 4.92233 5.85449 5.46886 5.77497L13.3855 4.62307C13.932 4.54355 14.4395 4.92214 14.5191 5.46867L14.7 6.71214H16.7211L16.3542 4.19111C16.1952 3.09805 15.1802 2.34088 14.0871 2.49993L4.19131 3.93979C3.09825 4.09884 2.34108 5.11387 2.50012 6.20693L3.93999 16.1027C4.08495 17.099 4.94103 17.8162 5.91915 17.815V15.8871C5.91915 15.8389 5.91567 15.7908 5.90873 15.7431L4.62327 6.90853Z" fill="black"/>
<path d="M12.2211 17.6159V11.3841C12.2211 11.2223 12.4032 11.1275 12.5357 11.2203L16.987 14.3362C17.1007 14.4158 17.1007 14.5842 16.987 14.6638L12.5357 17.7797C12.4032 17.8725 12.2211 17.7777 12.2211 17.6159Z" fill="black"/>
<path fill-rule="evenodd" clip-rule="evenodd" d="M19.2211 7.5H9.22105C8.11648 7.5 7.22105 8.39543 7.22105 9.5V19.5C7.22105 20.6046 8.11648 21.5 9.22105 21.5H19.2211C20.3256 21.5 21.2211 20.6046 21.2211 19.5V9.5C21.2211 8.39543 20.3256 7.5 19.2211 7.5ZM18.2211 9.5L10.2211 9.5C9.66877 9.5 9.22105 9.94772 9.22105 10.5V18.5C9.22105 19.0523 9.66877 19.5 10.2211 19.5H18.2211C18.7733 19.5 19.2211 19.0523 19.2211 18.5V10.5C19.2211 9.94771 18.7733 9.5 18.2211 9.5Z" fill="black"/>
<path d="M9.22119 7.99951H19.2212C20.0494 7.99959 20.7209 8.67136 20.7212 9.49951V19.5005C20.7209 20.3286 20.0494 21.0004 19.2212 21.0005H9.22119C8.39293 21.0005 7.72146 20.3287 7.72119 19.5005V9.49951C7.72145 8.67131 8.39293 7.99951 9.22119 7.99951ZM10.2212 8.99951C9.39276 8.99951 8.72119 9.67206 8.72119 10.5005V18.5005C8.72146 19.3287 9.39293 20.0005 10.2212 20.0005H18.2212C19.0496 20.0004 19.7212 19.3279 19.7212 18.4995V10.4995C19.7209 9.67136 19.0494 8.99959 18.2212 8.99951H10.2212ZM14.1587 2.99463C14.9785 2.87535 15.7406 3.44339 15.8599 4.26318L16.1431 6.2124H15.1323L15.0142 5.39697C14.8949 4.57732 14.1336 4.0094 13.314 4.12842L5.39697 5.27979C4.57718 5.39907 4.00914 6.16116 4.12842 6.98096L5.41357 15.8149C5.41704 15.8388 5.41943 15.8631 5.41943 15.8872V17.228C4.91178 17.048 4.51801 16.6007 4.43506 16.0308L2.99463 6.13525C2.87536 5.31552 3.44349 4.55443 4.26318 4.43506L14.1587 2.99463ZM16.3491 14.4995L12.7212 17.0386V11.9604L16.3491 14.4995Z" stroke="black"/>
</g>
</svg>
