<svg width="18" height="16" viewBox="0 0 18 16" fill="none" xmlns="http://www.w3.org/2000/svg">
<path fill-rule="evenodd" clip-rule="evenodd" d="M4.18177 5.36353C4.18177 4.81124 3.73406 4.36353 3.18177 4.36353H1.54541C0.993125 4.36353 0.54541 4.81124 0.54541 5.36353V14.9999C0.54541 15.5522 0.993127 15.9999 1.54541 15.9999H17C17.5522 15.9999 18 15.5522 18 14.9999V5.36353C18 4.81124 17.5522 4.36353 17 4.36353H15.3636C14.8113 4.36353 14.3636 4.81124 14.3636 5.36353V12.0908C14.3636 12.6431 13.9159 13.0908 13.3636 13.0908H5.18177C4.62949 13.0908 4.18177 12.6431 4.18177 12.0908V5.36353Z" fill="#F5F6F8"/>
<rect x="4.90906" width="8.72727" height="12.3636" rx="1" fill="#F5F6F8"/>
</svg>
