<svg width="20" height="20" viewBox="0 0 20 20" fill="none" xmlns="http://www.w3.org/2000/svg">
<path d="M18.5891 8.37593C18.5717 8.28792 18.5355 8.20468 18.4831 8.13189C18.4306 8.05909 18.3632 7.99844 18.2852 7.95405L15.9547 6.62593L15.9453 3.99937C15.9451 3.90891 15.9251 3.81959 15.887 3.73758C15.8488 3.65557 15.7933 3.58282 15.7242 3.52437C14.8789 2.80929 13.9054 2.26129 12.8555 1.90952C12.7728 1.88154 12.6852 1.87118 12.5983 1.87912C12.5113 1.88706 12.427 1.91312 12.3508 1.95562L10 3.26968L7.6469 1.95327C7.57061 1.91053 7.48621 1.88428 7.39914 1.87621C7.31207 1.86813 7.22428 1.87842 7.14143 1.9064C6.09219 2.26043 5.11975 2.81054 4.27581 3.52749C4.20688 3.58586 4.15142 3.65848 4.11325 3.74035C4.07508 3.82222 4.05511 3.91138 4.05471 4.00171L4.043 6.63062L1.71253 7.95874C1.63456 8.00313 1.56706 8.06378 1.51462 8.13658C1.46218 8.20937 1.42603 8.2926 1.40862 8.38062C1.19534 9.4524 1.19534 10.5557 1.40862 11.6275C1.42603 11.7155 1.46218 11.7987 1.51462 11.8715C1.56706 11.9443 1.63456 12.005 1.71253 12.0494L4.043 13.3775L4.05237 16.0048C4.05265 16.0953 4.07257 16.1846 4.11074 16.2666C4.14891 16.3486 4.20443 16.4214 4.27346 16.4798C5.11883 17.1949 6.09234 17.7429 7.14221 18.0947C7.22489 18.1227 7.31252 18.133 7.39944 18.1251C7.48636 18.1171 7.57066 18.0911 7.6469 18.0486L10 16.7306L12.3532 18.047C12.4463 18.0989 12.5512 18.1258 12.6578 18.1251C12.7261 18.1251 12.7939 18.114 12.8586 18.0923C13.9076 17.7385 14.88 17.1889 15.7242 16.4728C15.7932 16.4144 15.8486 16.3418 15.8868 16.2599C15.925 16.1781 15.9449 16.0889 15.9453 15.9986L15.9571 13.3697L18.2875 12.0416C18.3655 11.9972 18.433 11.9365 18.4854 11.8637C18.5379 11.7909 18.574 11.7077 18.5914 11.6197C18.8035 10.5488 18.8027 9.44655 18.5891 8.37593ZM10 13.1251C9.38196 13.1251 8.77777 12.9419 8.26387 12.5985C7.74997 12.2551 7.34943 11.7671 7.1129 11.196C6.87638 10.625 6.81449 9.99668 6.93507 9.39049C7.05565 8.7843 7.35328 8.22748 7.79032 7.79044C8.22736 7.3534 8.78418 7.05577 9.39037 6.93519C9.99656 6.81461 10.6249 6.8765 11.1959 7.11302C11.7669 7.34955 12.255 7.75009 12.5984 8.26399C12.9417 8.77789 13.125 9.38208 13.125 10.0001C13.125 10.8289 12.7958 11.6238 12.2097 12.2099C11.6237 12.7959 10.8288 13.1251 10 13.1251Z" fill="#CACBCE"/>
</svg>
